<?xml version="1.0" encoding="UTF-8"?>
<svg width="176px" height="169px" viewBox="0 0 176 169" version="1.1" xmlns="http://www.w3.org/2000/svg" xmlns:xlink="http://www.w3.org/1999/xlink">
    <title>my-logo</title>
    <g id="页面-1" stroke="none" stroke-width="1" fill="none" fill-rule="evenodd">
        <g id="monitor-code" transform="translate(0.4688, 0.2926)" fill="#000000">
            <path d="M142.310889,134.663342 L32.2527016,134.663342 C14.4724384,134.663342 0.0458253494,120.27397 0,102.493766 L0,32.1695762 C0.0458253494,14.3893721 14.4724384,3.55271368e-15 32.2527016,3.55271368e-15 L142.310889,3.55271368e-15 C160.091153,3.55271368e-15 174.517766,14.3893721 174.563591,32.1695762 L174.563591,102.493766 C174.517766,120.27397 160.091153,134.663342 142.310889,134.663342 Z M32.2527016,8.31255195 C19.0633166,8.31255195 8.35834836,18.9802707 8.31255195,32.1695762 L8.31255195,102.493766 C8.35834836,115.683071 19.0633166,126.35079 32.2527016,126.35079 L142.310889,126.35079 C155.500274,126.35079 166.205243,115.683071 166.251039,102.493766 L166.251039,32.1695762 C166.205243,18.9802707 155.500274,8.31255195 142.310889,8.31255195 L32.2527016,8.31255195 Z" id="形状" fill-rule="nonzero"></path>
            <path d="M87.2817955,167.91355 C84.9863477,167.91355 83.1255195,166.052721 83.1255195,163.757274 L83.1255195,130.507066 C83.1255195,128.211618 84.9863477,126.35079 87.2817955,126.35079 C89.5772433,126.35079 91.4380715,128.211618 91.4380715,130.507066 L91.4380715,163.757274 C91.4380715,166.052721 89.5772433,167.91355 87.2817955,167.91355 L87.2817955,167.91355 Z" id="路径" fill-rule="nonzero"></path>
            <path d="M137.157107,167.91355 L37.4064838,167.91355 C35.111036,167.91355 33.2502078,166.052721 33.2502078,163.757274 C33.2502078,161.461826 35.111036,159.600998 37.4064838,159.600998 L137.157107,159.600998 C139.452555,159.600998 141.313383,161.461826 141.313383,163.757274 C141.313383,166.052721 139.452555,167.91355 137.157107,167.91355 Z M41.2684955,94.1816109 C40.187277,94.1708368 39.14921,93.7556101 38.3591021,93.0174564 L16.4970906,71.1554447 C14.9028821,69.5111082 14.9028821,66.8978693 16.4970906,65.2535328 L40.1047381,41.6458854 C41.7345061,40.0161175 44.376882,40.0161175 46.0066499,41.6458855 C47.6364178,43.2756534 47.6364179,45.9180293 46.00665,47.5477973 L25.3083957,68.2460516 L44.3441396,87.1155445 C45.9383482,88.759881 45.9383482,91.37312 44.3441396,93.0174564 C43.5030441,93.7804627 42.4040096,94.1963136 41.2684955,94.1816109 L41.2684955,94.1816109 Z M133.295096,94.1812137 C132.188222,94.1755255 131.122479,93.7610698 130.302577,93.0174564 C128.708368,91.37312 128.708368,88.759881 130.302577,87.1155445 L149.255195,68.2460516 L128.556941,47.5477973 C126.927173,45.9180293 126.927173,43.2756534 128.556941,41.6458855 C130.186709,40.0161175 132.829085,40.0161175 134.458853,41.6458854 L158.0665,65.2535328 C159.660709,66.8978693 159.660709,69.5111082 158.0665,71.1554447 L136.204489,93.0174564 C135.414381,93.7556101 134.376314,94.1708368 133.295096,94.1812137 L133.295096,94.1812137 Z" id="形状" fill-rule="nonzero"></path>
            <text id="code" font-family="PingFangSC-Medium, PingFang SC" font-size="41" font-weight="400">
                <tspan x="39.5326721" y="78.7073982">code</tspan>
            </text>
        </g>
    </g>
</svg>